<svg xmlns:svg="http://www.w3.org/2000/svg" xmlns="http://www.w3.org/2000/svg" version="1.0" width="215" height="215" id="svg2">
  <defs id="defs4">

























</defs>
  <g transform="translate(-275,-165)" id="layer1">
    
    <g transform="translate(10,27.190275)" id="g3286">
      <path d="M 372.3125,139.1875 C 313.50039,139.1875 265.74999,186.90664 265.75,245.71875 C 265.75,301.62627 308.90539,347.50938 363.6875,351.90625 C 359.02546,346.20636 353.41552,338.69621 348.34375,331.5625 C 339.60189,319.29143 329.18556,300.87535 328.84375,282.46875 C 328.57884,268.83044 331.67398,261.3221 349.6875,232.96875 C 356.72029,221.88548 361.43362,202.91986 360.75,198.84375 C 360.07491,194.7591 367.328,205.00457 370.0625,211.875 C 373.67715,220.95868 373.12848,227.9049 366.4375,246.6875 C 363.25865,255.60026 358.05152,270.06538 363.28125,276.5 C 362.64036,275.72238 380.2818,257.71399 384.375,239.09375 C 387.49404,224.86581 386.20658,205.89225 380.0625,191.84375 C 374.68751,179.56414 368.20673,169.45484 369.53125,153.21875 C 370.07814,146.42522 371.95116,139.7339 372.15625,139.375 C 376.10417,149.30465 377.91937,152.92444 379.40625,155.71875 C 386.6356,169.39126 401.60905,189.61705 408.71875,203.375 C 415.79426,217.05605 421.30018,239.72868 413.0625,262.84375 C 404.97863,285.54009 397.15223,293.23842 389,311.59375 C 382.99196,325.10971 377.90472,341.69777 375.28125,352.21875 C 432.72252,350.64474 478.84375,303.53807 478.84375,245.71875 C 478.84375,186.90664 431.12461,139.1875 372.3125,139.1875 z " style="color:#000000;fill:#293182;fill-opacity:1;fill-rule:nonzero;stroke:none;stroke-width:0.99657911;stroke-linecap:butt;stroke-linejoin:miter;marker:none;marker-start:none;marker-mid:none;marker-end:none;stroke-miterlimit:4;stroke-dasharray:none;stroke-dashoffset:0;stroke-opacity:1;visibility:visible;display:inline;overflow:visible;enable-background:accumulate" id="path2253"/>
      
    </g>
  </g>
</svg>